<svg xmlns="http://www.w3.org/2000/svg" xmlns:xlink="http://www.w3.org/1999/xlink" width="500" zoomAndPan="magnify" viewBox="0 0 375 374.999991" height="500" preserveAspectRatio="xMidYMid meet" version="1.2"><defs><clipPath id="e1f8944281"><path d="M 0 173.671875 L 375 173.671875 L 375 219.226562 L 0 219.226562 Z M 0 173.671875 "/></clipPath></defs><g id="e4d4c1e35a"><rect x="0" width="375" y="0" height="374.999991" style="fill:#ffffff;fill-opacity:1;stroke:none;"/><rect x="0" width="375" y="0" height="374.999991" style="fill:#1e1e1e;fill-opacity:1;stroke:none;"/><g style="fill:#e4e2dd;fill-opacity:1;"><g transform="translate(109.265622, 264.391125)"><path style="stroke:none" d="M 5.34375 -2.140625 L 11.765625 -2.140625 C 14.859375 -2.140625 17.503906 -3.085938 19.703125 -4.984375 C 21.910156 -6.890625 23.785156 -9.179688 25.328125 -11.859375 C 26.867188 -14.535156 28.117188 -17.003906 29.078125 -19.265625 C 29.429688 -20.097656 30.289062 -22.679688 31.65625 -27.015625 C 33.03125 -31.359375 34.785156 -37.007812 36.921875 -43.96875 C 39.066406 -50.925781 41.445312 -58.710938 44.0625 -67.328125 C 46.675781 -75.953125 49.410156 -84.898438 52.265625 -94.171875 C 55.117188 -103.453125 57.910156 -112.671875 60.640625 -121.828125 C 63.378906 -130.984375 65.96875 -139.570312 68.40625 -147.59375 C 70.84375 -155.625 72.984375 -162.613281 74.828125 -168.5625 C 76.671875 -174.507812 78.007812 -178.96875 78.84375 -181.9375 L 80.984375 -181.9375 C 81.929688 -178.96875 83.296875 -174.507812 85.078125 -168.5625 C 86.867188 -162.613281 88.953125 -155.625 91.328125 -147.59375 C 93.703125 -139.570312 96.253906 -130.984375 98.984375 -121.828125 C 101.722656 -112.671875 104.488281 -103.453125 107.28125 -94.171875 C 110.082031 -84.898438 112.789062 -75.953125 115.40625 -67.328125 C 118.019531 -58.710938 120.394531 -50.925781 122.53125 -43.96875 C 124.675781 -37.007812 126.429688 -31.359375 127.796875 -27.015625 C 129.171875 -22.679688 130.035156 -20.097656 130.390625 -19.265625 C 131.460938 -17.003906 132.738281 -14.535156 134.21875 -11.859375 C 135.707031 -9.179688 137.550781 -6.890625 139.75 -4.984375 C 141.957031 -3.085938 144.601562 -2.140625 147.6875 -2.140625 L 154.109375 -2.140625 L 154.109375 0 L 106.3125 0 L 106.3125 -1.96875 L 114.515625 -1.96875 C 115.828125 -1.96875 117.132812 -2.171875 118.4375 -2.578125 C 119.75 -2.992188 120.40625 -4.332031 120.40625 -6.59375 C 120.40625 -7.90625 119.453125 -12.066406 117.546875 -19.078125 C 115.640625 -26.097656 113.203125 -34.601562 110.234375 -44.59375 L 41.03125 -44.59375 C 39.476562 -38.40625 38.285156 -32.785156 37.453125 -27.734375 C 36.617188 -22.679688 36.203125 -18.609375 36.203125 -15.515625 C 36.203125 -10.523438 37.507812 -7.019531 40.125 -5 C 42.75 -2.976562 45.546875 -1.96875 48.515625 -1.96875 L 56.546875 -1.96875 L 56.546875 0 L 5.34375 0 Z M 58.328125 -105.234375 C 55.234375 -95.367188 52.195312 -85.351562 49.21875 -75.1875 C 46.25 -65.019531 43.695312 -55.535156 41.5625 -46.734375 L 109.515625 -46.734375 C 107.265625 -54.460938 104.828125 -62.609375 102.203125 -71.171875 C 99.585938 -79.734375 96.972656 -88.320312 94.359375 -96.9375 C 91.742188 -105.5625 89.21875 -113.738281 86.78125 -121.46875 C 84.34375 -129.195312 82.171875 -136.0625 80.265625 -142.0625 C 78.367188 -148.070312 76.882812 -152.832031 75.8125 -156.34375 C 74.738281 -159.851562 74.203125 -161.609375 74.203125 -161.609375 L 74.921875 -159.46875 C 73.253906 -153.644531 70.929688 -145.914062 67.953125 -136.28125 C 64.984375 -126.644531 61.773438 -116.296875 58.328125 -105.234375 Z M 58.328125 -105.234375 "/></g></g><g clip-rule="nonzero" clip-path="url(#e1f8944281)"><path style=" stroke:none;fill-rule:nonzero;fill:#1e1e1e;fill-opacity:1;" d="M 0 173.671875 L 374.941406 173.671875 L 374.941406 219.226562 L 0 219.226562 Z M 0 173.671875 "/></g><g style="fill:#e4e2dd;fill-opacity:1;"><g transform="translate(115.078122, 211.822661)"><path style="stroke:none" d="M 53.640625 -2.953125 L 52.515625 0 L 48.84375 0 L 50.28125 -3.15625 C 48.445312 -3.425781 46.632812 -3.84375 44.84375 -4.40625 C 43.0625 -4.96875 41.441406 -5.789062 39.984375 -6.875 C 37.710938 -4.875 35.03125 -3.175781 31.9375 -1.78125 C 28.84375 -0.382812 25.410156 0.3125 21.640625 0.3125 C 19.304688 0.3125 17.148438 -0.117188 15.171875 -0.984375 C 13.203125 -1.859375 11.613281 -3.066406 10.40625 -4.609375 C 9.207031 -6.148438 8.609375 -7.941406 8.609375 -9.984375 C 8.609375 -11.847656 9.023438 -13.5 9.859375 -14.9375 C 10.691406 -16.382812 11.769531 -17.609375 13.09375 -18.609375 C 14.414062 -19.617188 15.820312 -20.382812 17.3125 -20.90625 C 18.8125 -21.4375 20.222656 -21.703125 21.546875 -21.703125 C 23.617188 -21.703125 25.367188 -21.335938 26.796875 -20.609375 C 28.222656 -19.878906 29.300781 -18.9375 30.03125 -17.78125 C 30.757812 -16.625 31.125 -15.363281 31.125 -14 C 31.125 -12.238281 30.597656 -10.71875 29.546875 -9.4375 C 28.492188 -8.164062 27.175781 -7.191406 25.59375 -6.515625 C 24.019531 -5.835938 22.429688 -5.5 20.828125 -5.5 C 19.773438 -5.5 19.117188 -5.53125 18.859375 -5.59375 C 18.609375 -5.664062 18.484375 -5.785156 18.484375 -5.953125 C 18.484375 -6.160156 18.585938 -6.265625 18.796875 -6.265625 C 18.929688 -6.265625 19.109375 -6.238281 19.328125 -6.1875 C 19.546875 -6.132812 19.878906 -6.109375 20.328125 -6.109375 C 22.085938 -6.109375 23.722656 -6.421875 25.234375 -7.046875 C 26.742188 -7.679688 27.96875 -8.582031 28.90625 -9.75 C 29.84375 -10.925781 30.3125 -12.3125 30.3125 -13.90625 C 30.3125 -15.601562 29.65625 -17.003906 28.34375 -18.109375 C 27.039062 -19.210938 25.097656 -19.765625 22.515625 -19.765625 C 21.054688 -19.765625 19.585938 -19.507812 18.109375 -19 C 16.628906 -18.488281 15.269531 -17.757812 14.03125 -16.8125 C 12.789062 -15.863281 11.796875 -14.734375 11.046875 -13.421875 C 10.304688 -12.109375 9.9375 -10.65625 9.9375 -9.0625 C 9.9375 -7.40625 10.492188 -5.910156 11.609375 -4.578125 C 12.734375 -3.253906 14.1875 -2.210938 15.96875 -1.453125 C 17.75 -0.691406 19.59375 -0.3125 21.5 -0.3125 C 24.925781 -0.3125 28.070312 -0.878906 30.9375 -2.015625 C 33.8125 -3.148438 36.640625 -4.90625 39.421875 -7.28125 C 37.660156 -8.675781 36.160156 -10.28125 34.921875 -12.09375 C 33.679688 -13.914062 33.0625 -16 33.0625 -18.34375 C 33.0625 -20.132812 33.453125 -21.632812 34.234375 -22.84375 C 35.015625 -24.050781 36 -24.953125 37.1875 -25.546875 C 38.375 -26.140625 39.5625 -26.4375 40.75 -26.4375 C 42.3125 -26.4375 43.78125 -26.101562 45.15625 -25.4375 C 46.53125 -24.78125 47.742188 -23.898438 48.796875 -22.796875 C 49.847656 -21.691406 50.695312 -20.476562 51.34375 -19.15625 C 54.90625 -23.019531 58.117188 -26.15625 60.984375 -28.5625 C 63.859375 -30.976562 66.28125 -32.742188 68.25 -33.859375 C 70.21875 -34.984375 71.578125 -35.546875 72.328125 -35.546875 C 72.492188 -35.546875 72.578125 -35.429688 72.578125 -35.203125 C 72.578125 -35.066406 71.8125 -34.113281 70.28125 -32.34375 C 68.757812 -30.582031 66.757812 -27.679688 64.28125 -23.640625 C 62.207031 -20.242188 60.375 -16.890625 58.78125 -13.578125 C 57.1875 -10.265625 55.539062 -6.925781 53.84375 -3.5625 C 54.550781 -3.5625 55.269531 -3.644531 56 -3.8125 C 56.726562 -3.988281 57.503906 -4.226562 58.328125 -4.53125 C 59.710938 -5.113281 60.703125 -5.71875 61.296875 -6.34375 C 61.890625 -6.96875 62.253906 -7.28125 62.390625 -7.28125 C 62.566406 -7.28125 62.65625 -7.195312 62.65625 -7.03125 C 62.65625 -6.925781 62.3125 -6.554688 61.625 -5.921875 C 60.945312 -5.296875 59.9375 -4.671875 58.59375 -4.046875 C 57.257812 -3.421875 55.609375 -3.054688 53.640625 -2.953125 Z M 52.109375 -11.875 C 52.109375 -12.882812 52.015625 -13.957031 51.828125 -15.09375 C 51.640625 -16.238281 51.394531 -17.1875 51.09375 -17.9375 C 49.320312 -16.164062 47.585938 -14.363281 45.890625 -12.53125 C 44.191406 -10.695312 42.394531 -8.960938 40.5 -7.328125 C 41.925781 -6.242188 43.535156 -5.429688 45.328125 -4.890625 C 47.128906 -4.347656 48.847656 -3.972656 50.484375 -3.765625 C 50.953125 -5.054688 51.335938 -6.378906 51.640625 -7.734375 C 51.953125 -9.097656 52.109375 -10.476562 52.109375 -11.875 Z M 52.3125 -7.53125 L 52.421875 -7.4375 C 54.554688 -12.363281 57.132812 -17.078125 60.15625 -21.578125 C 63.175781 -26.078125 66.640625 -30.191406 70.546875 -33.921875 L 70.453125 -34.03125 C 69.867188 -33.957031 68.921875 -33.492188 67.609375 -32.640625 C 66.304688 -31.796875 64.78125 -30.648438 63.03125 -29.203125 C 61.28125 -27.765625 59.421875 -26.128906 57.453125 -24.296875 C 55.484375 -22.460938 53.53125 -20.507812 51.59375 -18.4375 C 52.039062 -17.414062 52.335938 -16.378906 52.484375 -15.328125 C 52.640625 -14.273438 52.71875 -13.238281 52.71875 -12.21875 C 52.71875 -11.40625 52.679688 -10.609375 52.609375 -9.828125 C 52.546875 -9.046875 52.445312 -8.28125 52.3125 -7.53125 Z M 35 -17.421875 C 35 -15.140625 35.476562 -13.21875 36.4375 -11.65625 C 37.40625 -10.101562 38.554688 -8.800781 39.890625 -7.75 C 41.859375 -9.40625 43.722656 -11.160156 45.484375 -13.015625 C 47.253906 -14.867188 49.035156 -16.726562 50.828125 -18.59375 C 49.910156 -20.289062 48.773438 -21.765625 47.421875 -23.015625 C 46.066406 -24.273438 44.335938 -24.90625 42.234375 -24.90625 C 41.035156 -24.90625 39.882812 -24.640625 38.78125 -24.109375 C 37.6875 -23.585938 36.78125 -22.773438 36.0625 -21.671875 C 35.351562 -20.566406 35 -19.148438 35 -17.421875 Z M 35 -17.421875 "/></g></g><g style="fill:#e4e2dd;fill-opacity:1;"><g transform="translate(168.859788, 211.822661)"><path style="stroke:none" d="M 21.296875 -11.921875 C 21.296875 -12.492188 21.191406 -12.957031 20.984375 -13.3125 C 20.785156 -13.675781 20.394531 -13.859375 19.8125 -13.859375 C 18.96875 -13.859375 18.023438 -13.484375 16.984375 -12.734375 C 15.953125 -11.984375 14.96875 -11.003906 14.03125 -9.796875 C 13.09375 -8.597656 12.328125 -7.3125 11.734375 -5.9375 C 11.140625 -4.5625 10.84375 -3.242188 10.84375 -1.984375 C 10.84375 -1.066406 11.300781 -0.609375 12.21875 -0.609375 C 12.863281 -0.609375 13.6875 -0.972656 14.6875 -1.703125 C 15.695312 -2.429688 16.707031 -3.378906 17.71875 -4.546875 C 18.738281 -5.722656 19.585938 -6.960938 20.265625 -8.265625 C 20.953125 -9.578125 21.296875 -10.796875 21.296875 -11.921875 Z M 21.90625 -10.796875 L 33 -30.5625 L 36.015625 -30.671875 C 34.046875 -27.097656 32.09375 -23.679688 30.15625 -20.421875 C 28.21875 -17.160156 26.472656 -14.195312 24.921875 -11.53125 C 23.378906 -8.863281 22.140625 -6.664062 21.203125 -4.9375 C 20.273438 -3.207031 19.8125 -2.085938 19.8125 -1.578125 C 19.8125 -0.929688 20.101562 -0.609375 20.6875 -0.609375 C 21.050781 -0.609375 21.582031 -0.835938 22.28125 -1.296875 C 22.976562 -1.753906 23.851562 -2.507812 24.90625 -3.5625 C 26.269531 -4.882812 27.210938 -5.882812 27.734375 -6.5625 C 28.265625 -7.25 28.5625 -7.59375 28.625 -7.59375 C 28.832031 -7.59375 28.9375 -7.523438 28.9375 -7.390625 C 28.9375 -7.253906 28.578125 -6.773438 27.859375 -5.953125 C 26.097656 -3.890625 24.613281 -2.378906 23.40625 -1.421875 C 22.195312 -0.472656 21.117188 0 20.171875 0 C 19.597656 0 19.140625 -0.253906 18.796875 -0.765625 C 18.453125 -1.273438 18.28125 -1.921875 18.28125 -2.703125 C 18.28125 -3.109375 18.320312 -3.488281 18.40625 -3.84375 C 18.5 -4.195312 18.578125 -4.507812 18.640625 -4.78125 L 18.546875 -4.890625 C 18.171875 -4.316406 17.609375 -3.644531 16.859375 -2.875 C 16.109375 -2.113281 15.285156 -1.441406 14.390625 -0.859375 C 13.492188 -0.285156 12.601562 0 11.71875 0 C 11.039062 0 10.476562 -0.234375 10.03125 -0.703125 C 9.59375 -1.179688 9.28125 -1.785156 9.09375 -2.515625 C 8.90625 -3.242188 8.8125 -3.953125 8.8125 -4.640625 C 8.8125 -5.015625 8.828125 -5.421875 8.859375 -5.859375 C 8.890625 -6.296875 8.941406 -6.703125 9.015625 -7.078125 C 8.984375 -7.078125 8.929688 -7.035156 8.859375 -6.953125 C 8.796875 -6.867188 8.742188 -6.828125 8.703125 -6.828125 C 8.535156 -6.828125 8.453125 -6.925781 8.453125 -7.125 C 8.453125 -7.164062 8.519531 -7.285156 8.65625 -7.484375 C 8.789062 -7.691406 9.234375 -8.21875 9.984375 -9.0625 C 11.378906 -10.59375 12.898438 -11.875 14.546875 -12.90625 C 16.191406 -13.945312 17.847656 -14.46875 19.515625 -14.46875 C 20.160156 -14.46875 20.71875 -14.28125 21.1875 -13.90625 C 21.664062 -13.53125 21.90625 -12.953125 21.90625 -12.171875 C 21.90625 -11.929688 21.90625 -11.703125 21.90625 -11.484375 C 21.90625 -11.265625 21.867188 -11.070312 21.796875 -10.90625 Z M 21.90625 -10.796875 "/></g></g><g style="fill:#e4e2dd;fill-opacity:1;"><g transform="translate(188.671398, 211.822661)"><path style="stroke:none" d="M 22.609375 -10.640625 C 22.609375 -9.585938 22.300781 -8.457031 21.6875 -7.25 C 21.082031 -6.050781 20.390625 -5.0625 19.609375 -4.28125 C 19.742188 -4.207031 19.929688 -4.171875 20.171875 -4.171875 C 21.054688 -4.171875 21.90625 -4.398438 22.71875 -4.859375 C 23.53125 -5.316406 24.257812 -5.921875 24.90625 -6.671875 C 25.25 -7.046875 25.460938 -7.28125 25.546875 -7.375 C 25.628906 -7.476562 25.707031 -7.53125 25.78125 -7.53125 C 25.945312 -7.53125 26.03125 -7.445312 26.03125 -7.28125 C 26.03125 -7.25 25.960938 -7.140625 25.828125 -6.953125 C 25.691406 -6.765625 25.332031 -6.363281 24.75 -5.75 C 24.101562 -5.101562 23.347656 -4.578125 22.484375 -4.171875 C 21.617188 -3.765625 20.695312 -3.5625 19.71875 -3.5625 C 19.375 -3.5625 19.148438 -3.578125 19.046875 -3.609375 C 18.265625 -2.734375 17.335938 -1.910156 16.265625 -1.140625 C 15.203125 -0.378906 13.957031 0 12.53125 0 C 11.507812 0 10.726562 -0.414062 10.1875 -1.25 C 9.644531 -2.082031 9.375 -3.175781 9.375 -4.53125 C 9.375 -5.445312 9.414062 -6.082031 9.5 -6.4375 C 9.582031 -6.800781 9.625 -7.050781 9.625 -7.1875 C 9.625 -7.382812 9.570312 -7.484375 9.46875 -7.484375 C 9.269531 -7.484375 9.082031 -7.347656 8.90625 -7.078125 C 8.738281 -6.804688 8.625 -6.671875 8.5625 -6.671875 C 8.351562 -6.671875 8.25 -6.753906 8.25 -6.921875 C 8.25 -7.023438 8.410156 -7.253906 8.734375 -7.609375 C 9.054688 -7.972656 9.445312 -8.390625 9.90625 -8.859375 C 10.363281 -9.335938 10.796875 -9.765625 11.203125 -10.140625 C 12.703125 -11.523438 14.179688 -12.539062 15.640625 -13.1875 C 17.097656 -13.832031 18.40625 -14.15625 19.5625 -14.15625 C 20.539062 -14.15625 21.289062 -13.820312 21.8125 -13.15625 C 22.34375 -12.5 22.609375 -11.660156 22.609375 -10.640625 Z M 21.5 -11.25 C 21.5 -11.863281 21.363281 -12.398438 21.09375 -12.859375 C 20.820312 -13.316406 20.363281 -13.546875 19.71875 -13.546875 C 18.832031 -13.546875 17.90625 -13.179688 16.9375 -12.453125 C 15.96875 -11.722656 15.066406 -10.78125 14.234375 -9.625 C 13.398438 -8.46875 12.71875 -7.257812 12.1875 -6 C 11.664062 -4.75 11.40625 -3.582031 11.40625 -2.5 C 11.40625 -1.78125 11.539062 -1.285156 11.8125 -1.015625 C 12.082031 -0.742188 12.390625 -0.609375 12.734375 -0.609375 C 13.753906 -0.609375 14.769531 -0.9375 15.78125 -1.59375 C 16.800781 -2.257812 17.742188 -3.128906 18.609375 -4.203125 C 19.484375 -5.273438 20.179688 -6.429688 20.703125 -7.671875 C 21.234375 -8.910156 21.5 -10.101562 21.5 -11.25 Z M 21.5 -11.25 "/></g></g><g style="fill:#e4e2dd;fill-opacity:1;"><g transform="translate(205.630957, 211.822661)"><path style="stroke:none" d="M 8.65625 -6.828125 C 8.488281 -6.828125 8.40625 -6.910156 8.40625 -7.078125 C 8.40625 -7.179688 8.566406 -7.421875 8.890625 -7.796875 C 9.210938 -8.171875 9.609375 -8.609375 10.078125 -9.109375 C 10.554688 -9.617188 11 -10.113281 11.40625 -10.59375 C 12.5 -11.78125 13.457031 -12.671875 14.28125 -13.265625 C 15.113281 -13.859375 15.890625 -14.15625 16.609375 -14.15625 C 17.253906 -14.15625 17.742188 -13.910156 18.078125 -13.421875 C 18.421875 -12.929688 18.59375 -12.378906 18.59375 -11.765625 C 18.59375 -11.085938 18.394531 -10.296875 18 -9.390625 C 17.613281 -8.492188 17.164062 -7.640625 16.65625 -6.828125 C 16.144531 -6.015625 15.722656 -5.367188 15.390625 -4.890625 L 15.484375 -4.78125 C 16.835938 -6.382812 18.054688 -7.648438 19.140625 -8.578125 C 20.234375 -9.515625 20.898438 -10.320312 21.140625 -11 C 21.410156 -11.75 21.816406 -12.460938 22.359375 -13.140625 C 22.898438 -13.816406 23.613281 -14.15625 24.5 -14.15625 C 25.3125 -14.15625 25.71875 -13.882812 25.71875 -13.34375 C 25.71875 -12.832031 25.425781 -12.347656 24.84375 -11.890625 C 24.269531 -11.429688 23.609375 -10.9375 22.859375 -10.40625 C 22.117188 -9.882812 21.457031 -9.289062 20.875 -8.625 C 20.300781 -7.96875 20.015625 -7.195312 20.015625 -6.3125 C 20.015625 -5.800781 20.179688 -5.382812 20.515625 -5.0625 C 20.859375 -4.738281 21.253906 -4.578125 21.703125 -4.578125 C 22.546875 -4.578125 23.304688 -4.921875 23.984375 -5.609375 C 24.566406 -6.179688 24.976562 -6.644531 25.21875 -7 C 25.457031 -7.351562 25.625 -7.53125 25.71875 -7.53125 C 25.925781 -7.53125 26.03125 -7.445312 26.03125 -7.28125 C 26.03125 -7.21875 25.875 -7 25.5625 -6.625 C 25.257812 -6.25 24.988281 -5.925781 24.75 -5.65625 C 24.238281 -5.070312 23.710938 -4.660156 23.171875 -4.421875 C 22.628906 -4.191406 22.117188 -4.078125 21.640625 -4.078125 C 21.097656 -4.078125 20.585938 -4.253906 20.109375 -4.609375 C 19.640625 -4.960938 19.40625 -5.445312 19.40625 -6.0625 C 19.40625 -6.632812 19.488281 -7.148438 19.65625 -7.609375 C 19.832031 -8.066406 20.085938 -8.5 20.421875 -8.90625 L 20.328125 -9.015625 C 19.003906 -7.796875 17.710938 -6.453125 16.453125 -4.984375 C 15.191406 -3.523438 13.914062 -1.96875 12.625 -0.3125 L 9.421875 0 C 11.148438 -2.78125 12.59375 -5.03125 13.75 -6.75 C 14.90625 -8.46875 15.78125 -9.800781 16.375 -10.75 C 16.96875 -11.695312 17.265625 -12.394531 17.265625 -12.84375 C 17.265625 -13.3125 16.976562 -13.546875 16.40625 -13.546875 C 16.0625 -13.546875 15.566406 -13.367188 14.921875 -13.015625 C 14.273438 -12.660156 13.441406 -11.957031 12.421875 -10.90625 C 11.410156 -9.851562 10.640625 -9.023438 10.109375 -8.421875 C 9.585938 -7.828125 9.234375 -7.410156 9.046875 -7.171875 C 8.859375 -6.941406 8.726562 -6.828125 8.65625 -6.828125 Z M 8.65625 -6.828125 "/></g></g><g style="fill:#e4e2dd;fill-opacity:1;"><g transform="translate(222.590517, 211.822661)"><path style="stroke:none" d="M 11.921875 0 C 11.066406 0 10.398438 -0.226562 9.921875 -0.6875 C 9.453125 -1.144531 9.128906 -1.726562 8.953125 -2.4375 C 8.785156 -3.15625 8.703125 -3.890625 8.703125 -4.640625 C 8.703125 -5.046875 8.726562 -5.441406 8.78125 -5.828125 C 8.832031 -6.222656 8.894531 -6.625 8.96875 -7.03125 C 8.925781 -7.03125 8.878906 -7.003906 8.828125 -6.953125 C 8.785156 -6.898438 8.726562 -6.875 8.65625 -6.875 C 8.519531 -6.875 8.453125 -6.957031 8.453125 -7.125 C 8.453125 -7.226562 8.503906 -7.332031 8.609375 -7.4375 C 8.710938 -7.539062 8.929688 -7.796875 9.265625 -8.203125 C 10.660156 -9.898438 12.300781 -11.316406 14.1875 -12.453125 C 16.070312 -13.585938 17.894531 -14.15625 19.65625 -14.15625 C 20.4375 -14.15625 21 -13.910156 21.34375 -13.421875 C 21.6875 -12.929688 21.859375 -12.347656 21.859375 -11.671875 C 21.859375 -11.054688 21.804688 -10.597656 21.703125 -10.296875 L 21.796875 -10.1875 C 22.410156 -11.175781 22.851562 -11.921875 23.125 -12.421875 C 23.394531 -12.929688 23.625 -13.285156 23.8125 -13.484375 C 24 -13.691406 24.265625 -13.796875 24.609375 -13.796875 L 27.046875 -13.90625 C 26.773438 -13.5625 26.347656 -12.960938 25.765625 -12.109375 C 25.191406 -11.265625 24.554688 -10.304688 23.859375 -9.234375 C 23.160156 -8.171875 22.5 -7.09375 21.875 -6 C 21.25 -4.914062 20.734375 -3.957031 20.328125 -3.125 C 19.921875 -2.300781 19.71875 -1.703125 19.71875 -1.328125 C 19.71875 -0.847656 20.003906 -0.609375 20.578125 -0.609375 C 21.359375 -0.609375 22.394531 -1.191406 23.6875 -2.359375 C 24.976562 -3.535156 26.351562 -4.988281 27.8125 -6.71875 C 28.113281 -7.09375 28.304688 -7.320312 28.390625 -7.40625 C 28.484375 -7.488281 28.546875 -7.53125 28.578125 -7.53125 C 28.773438 -7.53125 28.875 -7.429688 28.875 -7.234375 C 28.875 -7.203125 28.722656 -7.003906 28.421875 -6.640625 C 28.117188 -6.285156 27.753906 -5.867188 27.328125 -5.390625 C 26.898438 -4.921875 26.484375 -4.46875 26.078125 -4.03125 C 24.921875 -2.800781 23.859375 -1.820312 22.890625 -1.09375 C 21.921875 -0.363281 21.097656 0 20.421875 0 C 19.742188 0 19.203125 -0.234375 18.796875 -0.703125 C 18.390625 -1.179688 18.1875 -2.117188 18.1875 -3.515625 C 18.1875 -3.679688 18.191406 -3.84375 18.203125 -4 C 18.222656 -4.15625 18.234375 -4.300781 18.234375 -4.4375 C 17.722656 -3.925781 17.09375 -3.320312 16.34375 -2.625 C 15.601562 -1.925781 14.84375 -1.3125 14.0625 -0.78125 C 13.28125 -0.257812 12.566406 0 11.921875 0 Z M 10.75 -2.234375 C 10.75 -1.765625 10.84375 -1.375 11.03125 -1.0625 C 11.21875 -0.757812 11.515625 -0.609375 11.921875 -0.609375 C 12.492188 -0.609375 13.1875 -0.863281 14 -1.375 C 14.820312 -1.882812 15.644531 -2.5625 16.46875 -3.40625 C 17.300781 -4.257812 18.082031 -5.1875 18.8125 -6.1875 C 19.550781 -7.1875 20.140625 -8.171875 20.578125 -9.140625 C 21.015625 -10.109375 21.234375 -10.96875 21.234375 -11.71875 C 21.234375 -12.226562 21.109375 -12.660156 20.859375 -13.015625 C 20.609375 -13.367188 20.207031 -13.546875 19.65625 -13.546875 C 18.644531 -13.546875 17.609375 -13.140625 16.546875 -12.328125 C 15.492188 -11.515625 14.523438 -10.492188 13.640625 -9.265625 C 12.765625 -8.046875 12.0625 -6.796875 11.53125 -5.515625 C 11.007812 -4.242188 10.75 -3.148438 10.75 -2.234375 Z M 10.75 -2.234375 "/></g></g><path style="fill:none;stroke-width:2;stroke-linecap:butt;stroke-linejoin:miter;stroke:#e4e2dd;stroke-opacity:1;stroke-miterlimit:4;" d="M 0.000542136 0.997962 L 225.80264 0.997962 " transform="matrix(0.75,0,0,0.75,102.823812,218.478091)"/><g style="fill:#e4e2dd;fill-opacity:1;"><g transform="translate(174.617319, 239.789086)"><path style="stroke:none" d="M 0.515625 0 L 0.515625 -4.328125 L 3.359375 -4.328125 L 3.359375 -3.5 L 1.5 -3.5 L 1.5 -2.609375 L 3.203125 -2.609375 L 3.203125 -1.78125 L 1.5 -1.78125 L 1.5 -0.828125 L 3.4375 -0.828125 L 3.4375 0 Z M 0.515625 0 "/></g></g><g style="fill:#e4e2dd;fill-opacity:1;"><g transform="translate(181.420911, 239.789086)"><path style="stroke:none" d="M 2.03125 0.09375 C 1.664062 0.09375 1.351562 0.0351562 1.09375 -0.078125 C 0.832031 -0.203125 0.628906 -0.375 0.484375 -0.59375 C 0.335938 -0.820312 0.265625 -1.082031 0.265625 -1.375 L 1.234375 -1.375 C 1.234375 -1.175781 1.304688 -1.015625 1.453125 -0.890625 C 1.597656 -0.773438 1.785156 -0.71875 2.015625 -0.71875 C 2.222656 -0.71875 2.382812 -0.757812 2.5 -0.84375 C 2.625 -0.925781 2.6875 -1.039062 2.6875 -1.1875 C 2.6875 -1.332031 2.613281 -1.453125 2.46875 -1.546875 C 2.332031 -1.648438 2.109375 -1.734375 1.796875 -1.796875 C 1.296875 -1.898438 0.921875 -2.0625 0.671875 -2.28125 C 0.429688 -2.5 0.3125 -2.785156 0.3125 -3.140625 C 0.3125 -3.535156 0.453125 -3.847656 0.734375 -4.078125 C 1.023438 -4.304688 1.421875 -4.421875 1.921875 -4.421875 C 2.265625 -4.421875 2.5625 -4.359375 2.8125 -4.234375 C 3.0625 -4.117188 3.253906 -3.953125 3.390625 -3.734375 C 3.535156 -3.523438 3.609375 -3.273438 3.609375 -2.984375 L 2.65625 -2.984375 C 2.65625 -3.179688 2.59375 -3.332031 2.46875 -3.4375 C 2.34375 -3.550781 2.164062 -3.609375 1.9375 -3.609375 C 1.726562 -3.609375 1.5625 -3.566406 1.4375 -3.484375 C 1.320312 -3.410156 1.265625 -3.300781 1.265625 -3.15625 C 1.265625 -3.019531 1.332031 -2.90625 1.46875 -2.8125 C 1.601562 -2.726562 1.832031 -2.644531 2.15625 -2.5625 C 2.695312 -2.4375 3.085938 -2.265625 3.328125 -2.046875 C 3.566406 -1.835938 3.6875 -1.5625 3.6875 -1.21875 C 3.6875 -0.8125 3.535156 -0.488281 3.234375 -0.25 C 2.941406 -0.0195312 2.539062 0.09375 2.03125 0.09375 Z M 2.03125 0.09375 "/></g></g><g style="fill:#e4e2dd;fill-opacity:1;"><g transform="translate(188.440979, 239.789086)"><path style="stroke:none" d="M 1.5625 0 L 1.5625 -3.40625 L 0.1875 -3.40625 L 0.1875 -4.328125 L 3.921875 -4.328125 L 3.921875 -3.40625 L 2.546875 -3.40625 L 2.546875 0 Z M 1.5625 0 "/></g></g><g style="fill:#e4e2dd;fill-opacity:1;"><g transform="translate(195.597122, 239.789086)"><path style="stroke:none" d="M 0.515625 0 L 0.515625 -4.328125 L 2.234375 -4.328125 C 2.691406 -4.328125 3.09375 -4.234375 3.4375 -4.046875 C 3.78125 -3.867188 4.046875 -3.617188 4.234375 -3.296875 C 4.421875 -2.972656 4.515625 -2.597656 4.515625 -2.171875 C 4.515625 -1.734375 4.421875 -1.351562 4.234375 -1.03125 C 4.046875 -0.707031 3.78125 -0.453125 3.4375 -0.265625 C 3.09375 -0.0859375 2.691406 0 2.234375 0 Z M 1.5 -0.90625 L 2.21875 -0.90625 C 2.46875 -0.90625 2.691406 -0.957031 2.890625 -1.0625 C 3.085938 -1.164062 3.238281 -1.3125 3.34375 -1.5 C 3.457031 -1.6875 3.515625 -1.910156 3.515625 -2.171875 C 3.515625 -2.421875 3.457031 -2.640625 3.34375 -2.828125 C 3.238281 -3.015625 3.085938 -3.160156 2.890625 -3.265625 C 2.691406 -3.367188 2.460938 -3.421875 2.203125 -3.421875 L 1.5 -3.421875 Z M 1.5 -0.90625 "/></g></g><g style="fill:#e4e2dd;fill-opacity:1;"><g transform="translate(174.778388, 248.035838)"><path style="stroke:none" d="M 0.3125 0 L 0.3125 -0.6875 L 2.109375 -2.234375 C 2.242188 -2.359375 2.347656 -2.476562 2.421875 -2.59375 C 2.492188 -2.71875 2.53125 -2.847656 2.53125 -2.984375 C 2.53125 -3.160156 2.472656 -3.300781 2.359375 -3.40625 C 2.242188 -3.519531 2.09375 -3.578125 1.90625 -3.578125 C 1.707031 -3.578125 1.550781 -3.515625 1.4375 -3.390625 C 1.320312 -3.273438 1.257812 -3.101562 1.25 -2.875 L 0.359375 -2.875 C 0.367188 -3.351562 0.515625 -3.726562 0.796875 -4 C 1.078125 -4.28125 1.453125 -4.421875 1.921875 -4.421875 C 2.234375 -4.421875 2.503906 -4.363281 2.734375 -4.25 C 2.972656 -4.132812 3.15625 -3.972656 3.28125 -3.765625 C 3.414062 -3.554688 3.484375 -3.3125 3.484375 -3.03125 C 3.484375 -2.789062 3.421875 -2.546875 3.296875 -2.296875 C 3.179688 -2.054688 2.976562 -1.816406 2.6875 -1.578125 L 1.875 -0.859375 L 3.5625 -0.859375 L 3.5625 0 Z M 0.3125 0 "/></g></g><g style="fill:#e4e2dd;fill-opacity:1;"><g transform="translate(181.810827, 248.035838)"><path style="stroke:none" d="M 2.171875 0.09375 C 1.785156 0.09375 1.453125 0.00390625 1.171875 -0.171875 C 0.890625 -0.359375 0.675781 -0.617188 0.53125 -0.953125 C 0.382812 -1.285156 0.3125 -1.691406 0.3125 -2.171875 C 0.3125 -2.640625 0.382812 -3.039062 0.53125 -3.375 C 0.675781 -3.707031 0.890625 -3.960938 1.171875 -4.140625 C 1.453125 -4.328125 1.785156 -4.421875 2.171875 -4.421875 C 2.554688 -4.421875 2.890625 -4.328125 3.171875 -4.140625 C 3.453125 -3.960938 3.664062 -3.707031 3.8125 -3.375 C 3.957031 -3.039062 4.03125 -2.640625 4.03125 -2.171875 C 4.03125 -1.691406 3.957031 -1.285156 3.8125 -0.953125 C 3.664062 -0.617188 3.453125 -0.359375 3.171875 -0.171875 C 2.890625 0.00390625 2.554688 0.09375 2.171875 0.09375 Z M 1.265625 -2.171875 C 1.265625 -1.734375 1.34375 -1.394531 1.5 -1.15625 C 1.65625 -0.914062 1.878906 -0.796875 2.171875 -0.796875 C 2.460938 -0.796875 2.6875 -0.914062 2.84375 -1.15625 C 3 -1.394531 3.078125 -1.734375 3.078125 -2.171875 C 3.078125 -2.597656 3 -2.929688 2.84375 -3.171875 C 2.6875 -3.421875 2.460938 -3.546875 2.171875 -3.546875 C 1.878906 -3.546875 1.65625 -3.421875 1.5 -3.171875 C 1.34375 -2.929688 1.265625 -2.597656 1.265625 -2.171875 Z M 1.265625 -2.171875 "/></g></g><g style="fill:#e4e2dd;fill-opacity:1;"><g transform="translate(189.202008, 248.035838)"><path style="stroke:none" d="M 0.3125 0 L 0.3125 -0.6875 L 2.109375 -2.234375 C 2.242188 -2.359375 2.347656 -2.476562 2.421875 -2.59375 C 2.492188 -2.71875 2.53125 -2.847656 2.53125 -2.984375 C 2.53125 -3.160156 2.472656 -3.300781 2.359375 -3.40625 C 2.242188 -3.519531 2.09375 -3.578125 1.90625 -3.578125 C 1.707031 -3.578125 1.550781 -3.515625 1.4375 -3.390625 C 1.320312 -3.273438 1.257812 -3.101562 1.25 -2.875 L 0.359375 -2.875 C 0.367188 -3.351562 0.515625 -3.726562 0.796875 -4 C 1.078125 -4.28125 1.453125 -4.421875 1.921875 -4.421875 C 2.234375 -4.421875 2.503906 -4.363281 2.734375 -4.25 C 2.972656 -4.132812 3.15625 -3.972656 3.28125 -3.765625 C 3.414062 -3.554688 3.484375 -3.3125 3.484375 -3.03125 C 3.484375 -2.789062 3.421875 -2.546875 3.296875 -2.296875 C 3.179688 -2.054688 2.976562 -1.816406 2.6875 -1.578125 L 1.875 -0.859375 L 3.5625 -0.859375 L 3.5625 0 Z M 0.3125 0 "/></g></g><g style="fill:#e4e2dd;fill-opacity:1;"><g transform="translate(196.234447, 248.035838)"><path style="stroke:none" d="M 0.3125 0 L 0.3125 -0.6875 L 2.109375 -2.234375 C 2.242188 -2.359375 2.347656 -2.476562 2.421875 -2.59375 C 2.492188 -2.71875 2.53125 -2.847656 2.53125 -2.984375 C 2.53125 -3.160156 2.472656 -3.300781 2.359375 -3.40625 C 2.242188 -3.519531 2.09375 -3.578125 1.90625 -3.578125 C 1.707031 -3.578125 1.550781 -3.515625 1.4375 -3.390625 C 1.320312 -3.273438 1.257812 -3.101562 1.25 -2.875 L 0.359375 -2.875 C 0.367188 -3.351562 0.515625 -3.726562 0.796875 -4 C 1.078125 -4.28125 1.453125 -4.421875 1.921875 -4.421875 C 2.234375 -4.421875 2.503906 -4.363281 2.734375 -4.25 C 2.972656 -4.132812 3.15625 -3.972656 3.28125 -3.765625 C 3.414062 -3.554688 3.484375 -3.3125 3.484375 -3.03125 C 3.484375 -2.789062 3.421875 -2.546875 3.296875 -2.296875 C 3.179688 -2.054688 2.976562 -1.816406 2.6875 -1.578125 L 1.875 -0.859375 L 3.5625 -0.859375 L 3.5625 0 Z M 0.3125 0 "/></g></g></g></svg>